<svg xmlns="http://www.w3.org/2000/svg"
	class="logo"
	viewBox="0 0 232 43">
  <style>
    .logo {
      max-width: 232px;
      min-width: 100px;
    }
  </style>
	<path class="logo__path_black"
    d="M22.5,29.8c-1.2,0-1.8,0.6-2.1,1.1c-0.3,0.4-0.5,0.8-0.7,1.2c-1,1.5-2.8,2.7-5.4,2.7c-4.1,0-7.4-2.9-7.4-9.3c0-3.3,0.9-9.6,7.3-9.6c3.1,0,4.3,1.4,4.9,2c0.3,0.3,0.6,0.6,0.9,1c0.3,0.3,1,1.2,2.2,1.2c1.3,0,2.9-1.1,2.9-3c0-2.3-2.9-4.5-5.2-5.5c-1.5-0.6-3.6-1-5.8-1c-8.9,0-14,6.6-14,14.7c0,6.7,3.3,11,6.7,13c1.2,0.7,3.3,1.8,7.4,1.8c2.7,0,6-0.4,9-3c0.9-0.8,1.8-1.9,2.2-2.9c0.2-0.7,0.3-1.2,0.3-1.5C25.7,30.8,23.9,29.8,22.5,29.8zM40.5,18.4c-1.7,0-3.3,0.8-4.2,2.4c-0.4,0.6-0.6,1.2-0.8,1.8v-0.5c0-0.7,0-2.5-1.6-3.3c-0.3-0.2-0.7-0.3-1.2-0.3c-1,0-1.6,0.4-2,0.8c-0.9,0.9-0.9,2-0.9,3v13.8c0,1.2,0,3.1,2.1,3.6c0.4,0.1,0.8,0.2,1,0.2c0.8,0,1.7-0.3,2.1-0.8c0.8-0.8,0.8-2,0.8-2.9v-6.3c0-2.3,0.1-5.4,3.2-6c0.5-0.1,1-0.1,1.6-0.1c0.7,0,1.5-0.2,2.1-0.8c0.4-0.4,0.7-1.1,0.7-1.9C43.5,19.8,42.7,18.4,40.5,18.4zM55.3,18.4c-6.6,0-10.7,4.8-10.7,11c0,5,2.7,10.9,10.6,10.9c2.3,0,4.6-0.5,6.5-1.8c1.2-0.8,1.6-1.7,1.6-2.6c0-1.4-1.2-2.7-2.6-2.7c-0.5,0-1.1,0.2-1.7,0.7c-0.3,0.2-0.5,0.4-0.7,0.7c-0.4,0.4-1.2,1-2.9,1c-0.5,0-2,0-3.3-1.4c-1-1-1.2-2.2-1.3-3.2h11.5c1.1,0,2.5-0.1,2.5-2.8C64.9,24.3,62.7,18.4,55.3,18.4zM50.8,26.7c0.4-1.3,1.2-3.7,4.3-3.7c1.4,0,2.6,0.5,3.4,1.6c0.4,0.7,0.6,1.4,0.7,2.1H50.8zM86.4,11.2c-0.4-0.2-0.9-0.3-1.3-0.3c-1.1,0-2.1,0.5-2.6,1.5c-0.3,0.6-0.3,1.3-0.4,2.1v6c-1.1-0.8-2.7-2.1-5.7-2.1c-6,0-8.9,5-8.9,10.6c0,7.6,4.4,11.3,9,11.3c3.1,0,4.8-1.5,5.9-3c0,0.5,0.1,1.1,0.6,1.8c0.6,0.7,1.3,0.8,2.1,0.9c2.8,0,2.8-2.5,2.9-3.8V14.5C88,13.3,88,11.9,86.4,11.2zM78,35.4c-0.8,0-1.9-0.2-2.8-1.1c-1.4-1.4-1.7-3.9-1.7-5.2c0-2.8,1-5.8,4.2-5.8c0.8,0,2.7,0.2,3.8,2.4c0.5,1,0.8,2.3,0.8,3.8C82.3,30.3,82.3,35.4,78,35.4zM96.4,10.7c-1.6,0-2.9,1.3-2.9,2.9s1.2,2.9,2.9,2.9c1.6,0,2.9-1.3,2.9-2.9C99.3,11.9,97.9,10.7,96.4,10.7zM97.6,18.9c-0.4-0.2-0.8-0.2-1.3-0.2c-1.1,0-1.7,0.4-2.1,0.8c-0.4,0.5-0.8,1.2-0.8,2.7v14.1c0,1.1,0,2.9,1.8,3.5c0.3,0.1,0.6,0.2,1.2,0.2c0.8,0,1.7-0.2,2.3-1.1c0.6-0.8,0.6-1.7,0.6-2.6V22.1C99.3,21.1,99.2,19.6,97.6,18.9zM113.4,35.2c-1.4,0-2.1-0.2-2.1-2v-10c2.1,0,2.9,0,3.5-1.2c0.2-0.3,0.3-0.7,0.3-1.1c0-1.2-0.8-1.8-1.1-2c-0.5-0.2-0.9-0.2-2.6-0.2v-2.8c0-1.2,0-2.9-1.8-3.6c-0.3-0.1-0.7-0.2-1.1-0.2c-1.4,0-2,0.8-2.2,0.9c-0.7,0.8-0.7,1.9-0.8,2.8v2.9c-1,0-2.2,0-2.8,1.2c-0.2,0.3-0.2,0.6-0.2,1c0,1.4,0.9,1.9,1.1,2c0.6,0.3,1.2,0.3,1.9,0.3v11.1c0,2.4,0.1,5.6,5.6,5.6c1.6,0,4.3-0.2,4.3-2.6C115.4,36.5,115.1,35.2,113.4,35.2z"
    fill="#373843"/>
	<path class="logo__path_white"
    d="M184.8,20.3c-1.1-1-2.9-1.9-6.6-1.9c-6.6,0-8.8,2.7-8.8,4.7c0,1.5,1.3,2.5,2.6,2.5c1.2,0,1.9-0.8,2.2-1.2c0.6-0.8,1.1-1.4,3.5-1.4c0.8,0,3.3,0,3.3,1.8c0,1.1-0.8,1.3-2.9,1.7c-4.5,0.8-6.2,1.1-7.8,2.1c-0.6,0.4-1.6,1.1-2.2,2.6c-0.2,0.5-0.4,1.3-0.4,2.5c0,4,2.8,6.6,7.3,6.6c1.8,0,3.6-0.5,5.3-1.6c0.5-0.4,0.8-0.6,1.2-1c0.3,1,0.8,2.4,2.7,2.4c2.9,0,2.9-2.9,2.9-4.4V27C187.1,24.9,187.1,22.2,184.8,20.3zM181.2,32.9c-0.3,0.5-0.8,1.4-2.4,2.1c-1,0.5-1.9,0.6-2.5,0.6c-1.7,0-2.8-0.8-2.8-2.2c0-2,2.1-2.4,3.7-2.8c2.7-0.5,3-0.6,3.9-1v3.3H181.2zM202.8,27.2c-0.7-0.2-1.4-0.4-2.1-0.6c-2-0.6-3.3-1-3.3-2.1c0-1,1-1.8,2.9-1.8c2.3,0,3,0.9,3.5,1.6c0.4,0.5,0.8,1.2,2.1,1.2c1.4,0,2.7-1.1,2.7-2.6c0-2-2.9-4.5-8-4.5c-2.7,0-5.5,0.6-7.3,2.6c-1.3,1.5-1.5,3.2-1.5,4.2c0,4.1,3.6,5.2,5.8,5.8c0.6,0.2,3.2,0.9,3.7,1.1c1,0.3,2.1,0.6,2.1,1.9c0,1.2-1.1,1.9-3,1.9c-2.7,0-3.5-1.2-3.9-1.7c-0.6-0.9-1.2-1.8-2.7-1.8s-2.7,1.2-2.7,2.7c0,2.4,3.3,5.2,9.3,5.2c7.4,0,8.9-4.2,8.9-6.7C209.4,29.1,205.9,28.1,202.8,27.2zM229.5,20.3c-1.1-1-2.9-1.9-6.6-1.9c-6.6,0-8.8,2.7-8.8,4.7c0,1.5,1.3,2.5,2.6,2.5c1.2,0,1.9-0.8,2.2-1.2c0.6-0.8,1.1-1.4,3.5-1.4c0.8,0,3.3,0,3.3,1.8c0,1.1-0.8,1.3-2.9,1.7c-4.5,0.8-6.2,1.1-7.8,2.1c-0.6,0.4-1.6,1.1-2.2,2.6c-0.2,0.5-0.4,1.3-0.4,2.5c0,4,2.8,6.6,7.3,6.6c1.8,0,3.6-0.5,5.3-1.6c0.5-0.4,0.8-0.6,1.2-1c0.3,1,0.8,2.4,2.7,2.4c2.9,0,2.9-2.9,2.9-4.4V27C231.9,24.9,231.9,22.2,229.5,20.3zM226,32.9c-0.3,0.5-0.8,1.4-2.4,2.1c-1,0.5-1.9,0.6-2.5,0.6c-1.7,0-2.8-0.8-2.8-2.2c0-2,2.1-2.4,3.7-2.8c2.7-0.5,3-0.6,3.9-1v3.3H226zM135.1,0C133,0,128,0.8,128,8.3v26.9c0,7.3,5,8.1,7.1,8.1s6.9-0.8,6.9-8V8.1c0-1.6,0-3.9-1.9-6C139.3,1.1,137.7,0,135.1,0zM138.7,35.4c0,2.2-0.4,4.6-3.6,4.6c-3.8,0-3.8-3.4-3.8-4.8V8.3c0-1.5,0-5,3.8-5c0.4,0,1.7,0,2.7,1c1,1.1,1,2.5,1,3.7L138.7,35.4L138.7,35.4zM155.3,23.7l-2.1,2.7l5.3,6.8c0.8,1,1.6,2.1,1.5,3.5s-1.2,2.2-1.5,2.5c-0.8,0.6-1.5,0.9-2.3,0.9c-1.8,0-3.1-1.7-3.7-2.5l-4-5.1l-2.1,2.7l3.5,4.5c0.9,1.1,3,3.8,6.4,3.8c1.5,0,3-0.5,4.3-1.6c1.6-1.3,2.6-2.9,2.8-4.8c0.2-2.7-1.3-4.6-2.2-5.8L155.3,23.7zM163.3,6.4c-0.1-1.3-0.7-3.2-2.8-4.8c-1.4-1.1-2.8-1.6-4.3-1.6c-3.4,0-5.5,2.7-6.4,3.8l-6.1,7.8V17l8.7-11.2c0.6-0.8,2-2.5,3.8-2.5c0.7,0,1.5,0.3,2.3,0.9c0.3,0.3,1.4,1.1,1.5,2.5s-0.8,2.6-1.5,3.5l-14.7,18.9v5.4l17.4-22.3C162.1,11,163.6,9.2,163.3,6.4z"
    fill="#fff"/>
</svg>
